<svg id="Layer_1" enable-background="new 0 0 512 512" height="512" viewBox="0 0 512 512" width="512" xmlns="http://www.w3.org/2000/svg"><g><path d="m462.146 447.676c-.414-3.725-3.514-6.571-7.26-6.668-.353-.009-13.111-.336-33.803-.753.167-17.74-.973-37.211-1.03-38.146-.229-3.877-3.381-6.937-7.263-7.053-.343-.01-15.591-.458-39.13-.96-4.696-37.015-15.36-67.648-33.373-95.937-2.225-3.493-6.861-4.523-10.354-2.298-3.494 2.225-4.522 6.86-2.298 10.354 16.424 25.795 26.308 53.806 30.858 87.574-28.803-.549-65.758-1.068-102.493-1.068-8.001 0-16.397.024-24.956.073-4.142.023-7.48 3.4-7.457 7.543.023 4.127 3.377 7.457 7.499 7.457h.044c8.53-.049 16.897-.073 24.87-.073 63.94 0 128.585 1.578 149.426 2.136.326 7.247.753 19.121.658 30.107-38.354-.713-94.42-1.53-150.083-1.53s-111.73.817-150.083 1.53c-.095-10.986.331-22.86.658-30.108 13.392-.358 44.861-1.141 82.413-1.649 4.142-.056 7.454-3.459 7.397-7.601-.056-4.142-3.47-7.487-7.601-7.397-14.484.196-28.064.433-40.06.671.281-17.547-2.861-38.435-6.432-62.121-6.248-41.44-13.329-88.409-4.326-133.303 10.31-51.407 40.178-89.8 91.313-117.372 2.512-1.354 4.037-4.017 3.936-6.869-.003-.079-.136-8.191 5.137-17.001 6.5-10.862 18.14-17.964 34.654-21.166l4.904 46.25c.255 2.404 1.655 4.54 3.759 5.733.542.308 53.94 30.888 93.647 77.227-.071 6.611-1.173 25.33-10.836 38.153-6.296-1.688-18.833-5.855-29.893-14.406-1.899-1.467-4.383-1.936-6.685-1.268-.563.164-56.695 16.112-102.864-4.469-3.782-1.686-8.218.014-9.904 3.797s.014 8.218 3.797 9.904c15.618 6.961 32.014 10.212 47.333 11.361 2.414 24.279 16.919 41.551 33.494 61.274 2.527 3.007 5.141 6.116 7.763 9.313 1.483 1.808 3.635 2.743 5.803 2.743 1.674 0 3.358-.558 4.753-1.701 3.202-2.628 3.669-7.354 1.042-10.556-2.68-3.266-5.321-6.41-7.877-9.45-14.969-17.812-27.153-32.321-29.797-51.115 21.741-.156 39.557-3.904 46.994-5.735 17.559 12.352 36.611 15.879 37.459 16.031 2.478.439 5.004-.382 6.74-2.196 19.189-20.042 17.708-53.443 17.636-54.856-.084-1.63-.697-3.188-1.747-4.438-36.332-43.267-83.168-72.934-96.1-80.69l-5.333-50.294c-.211-1.989-1.208-3.813-2.771-5.063s-3.561-1.828-5.547-1.596c-31.639 3.649-46.446 18.062-53.297 29.51-4.809 8.034-6.452 15.644-7 20.392-.145.081-.284.165-.429.246-.59-36.554-10.873-64.032-11.363-65.318-.723-1.896-2.182-3.418-4.046-4.22-1.862-.803-3.972-.813-5.846-.034-1.993.83-49.27 20.95-88.317 75.062-2.424 3.358-1.666 8.047 1.693 10.471 3.357 2.423 8.047 1.666 10.471-1.693 27.642-38.306 60.234-58.666 74.552-66.344 3.324 11.543 8.644 34.56 7.79 61.246-43.686 28.772-69.853 66.96-79.726 116.189-9.521 47.475-2.231 95.827 4.2 138.487.526 3.486 1.041 6.906 1.537 10.262-15.813 5.036-32.787 5.592-41.156 5.484-23.496-92.819-18.456-172.352 14.998-236.467 1.916-3.673.492-8.203-3.18-10.119-3.673-1.915-8.203-.492-10.119 3.18-35.881 68.768-40.864 153.761-14.812 252.617.814 3.092 3.5 5.327 6.688 5.567.385.029 3.479.249 8.343.249 9.424 0 25.488-.83 41.355-5.475 1.709 13.008 2.817 24.752 2.605 34.901-20.938.462-34.283.856-34.51.862-3.882.116-7.033 3.176-7.263 7.053-.056.935-1.196 20.407-1.03 38.146-20.692.417-33.451.744-33.803.753-3.746.097-6.846 2.943-7.26 6.668-.124 1.114-3.001 27.601-.002 55.068.408 3.73 3.51 6.586 7.262 6.683.217.006 22.002.566 54.771 1.157 4.104.097 7.56-3.223 7.634-7.364s-3.223-7.559-7.364-7.634c-22.079-.397-39.157-.781-47.99-.991-1.182-15.697-.523-30.577.048-38.756 23.971-.565 108.346-2.404 191.787-2.404s167.816 1.839 191.787 2.404c.571 8.18 1.229 23.059.048 38.756-23.906.563-108.338 2.405-191.833 2.405-31.771 0-66.851-.264-104.265-.782-.036-.001-.071-.001-.106-.001-4.094 0-7.44 3.29-7.497 7.396-.058 4.143 3.253 7.546 7.395 7.604 37.484.519 72.633.783 104.473.783 98.306 0 197.891-2.547 198.886-2.573 3.752-.097 6.854-2.952 7.262-6.683 2.999-27.468.122-53.954-.002-55.068z"/><path d="m271.62 116.315c0-4.143-3.359-7.501-7.503-7.501s-7.503 3.358-7.503 7.501 3.359 7.501 7.503 7.501 7.503-3.358 7.503-7.501z"/></g></svg>